<mxfile host="app.diagrams.net" modified="2022-08-26T05:08:14.240Z" agent="5.0 (Windows NT 10.0; Win64; x64) AppleWebKit/537.36 (KHTML, like Gecko) Chrome/104.0.0.0 Safari/537.36" etag="E5Y-fIpo_kgCX2IHhFhK" version="20.2.7" type="github">
  <diagram id="R2lEEEUBdFMjLlhIrx00" name="Page-1">
    <mxGraphModel dx="1888" dy="615" grid="1" gridSize="10" guides="1" tooltips="1" connect="1" arrows="1" fold="1" page="1" pageScale="1" pageWidth="850" pageHeight="1100" math="0" shadow="0" extFonts="Permanent Marker^https://fonts.googleapis.com/css?family=Permanent+Marker">
      <root>
        <mxCell id="0" />
        <mxCell id="1" parent="0" />
        <mxCell id="7XeO29AsoPIPXktoPsgX-4" value="" style="edgeStyle=orthogonalEdgeStyle;rounded=0;orthogonalLoop=1;jettySize=auto;html=1;" parent="1" source="7XeO29AsoPIPXktoPsgX-2" target="7XeO29AsoPIPXktoPsgX-3" edge="1">
          <mxGeometry relative="1" as="geometry" />
        </mxCell>
        <mxCell id="2c_35KQz-vzl0vyJU7Tn-2" value="" style="edgeStyle=orthogonalEdgeStyle;rounded=0;orthogonalLoop=1;jettySize=auto;html=1;" edge="1" parent="1" source="7XeO29AsoPIPXktoPsgX-2" target="2c_35KQz-vzl0vyJU7Tn-1">
          <mxGeometry relative="1" as="geometry" />
        </mxCell>
        <mxCell id="7XeO29AsoPIPXktoPsgX-2" value="BVENGERS" style="rounded=0;whiteSpace=wrap;html=1;" parent="1" vertex="1">
          <mxGeometry x="280" y="310" width="120" height="60" as="geometry" />
        </mxCell>
        <mxCell id="7XeO29AsoPIPXktoPsgX-6" value="" style="edgeStyle=orthogonalEdgeStyle;rounded=0;orthogonalLoop=1;jettySize=auto;html=1;" parent="1" source="7XeO29AsoPIPXktoPsgX-3" target="7XeO29AsoPIPXktoPsgX-5" edge="1">
          <mxGeometry relative="1" as="geometry" />
        </mxCell>
        <mxCell id="7XeO29AsoPIPXktoPsgX-20" value="" style="edgeStyle=orthogonalEdgeStyle;rounded=0;orthogonalLoop=1;jettySize=auto;html=1;" parent="1" source="7XeO29AsoPIPXktoPsgX-3" target="7XeO29AsoPIPXktoPsgX-19" edge="1">
          <mxGeometry relative="1" as="geometry" />
        </mxCell>
        <mxCell id="7XeO29AsoPIPXktoPsgX-3" value="HAS" style="rhombus;whiteSpace=wrap;html=1;rounded=0;direction=south;" parent="1" vertex="1">
          <mxGeometry x="300" y="175" width="80" height="80" as="geometry" />
        </mxCell>
        <mxCell id="7XeO29AsoPIPXktoPsgX-8" value="" style="edgeStyle=orthogonalEdgeStyle;rounded=0;orthogonalLoop=1;jettySize=auto;html=1;" parent="1" source="7XeO29AsoPIPXktoPsgX-5" target="7XeO29AsoPIPXktoPsgX-7" edge="1">
          <mxGeometry relative="1" as="geometry" />
        </mxCell>
        <mxCell id="7XeO29AsoPIPXktoPsgX-5" value="USER" style="whiteSpace=wrap;html=1;rounded=0;" parent="1" vertex="1">
          <mxGeometry x="530" y="140" width="120" height="60" as="geometry" />
        </mxCell>
        <mxCell id="7XeO29AsoPIPXktoPsgX-7" value="user_id" style="ellipse;whiteSpace=wrap;html=1;rounded=0;" parent="1" vertex="1">
          <mxGeometry x="545" y="40" width="90" height="30" as="geometry" />
        </mxCell>
        <mxCell id="7XeO29AsoPIPXktoPsgX-9" value="user_number" style="ellipse;whiteSpace=wrap;html=1;rounded=0;" parent="1" vertex="1">
          <mxGeometry x="670" y="40" width="90" height="30" as="geometry" />
        </mxCell>
        <mxCell id="7XeO29AsoPIPXktoPsgX-11" value="" style="endArrow=classic;html=1;rounded=0;exitX=0.9;exitY=0.073;exitDx=0;exitDy=0;exitPerimeter=0;" parent="1" source="7XeO29AsoPIPXktoPsgX-5" target="7XeO29AsoPIPXktoPsgX-9" edge="1">
          <mxGeometry width="50" height="50" relative="1" as="geometry">
            <mxPoint x="660" y="130" as="sourcePoint" />
            <mxPoint x="710" y="80" as="targetPoint" />
          </mxGeometry>
        </mxCell>
        <mxCell id="7XeO29AsoPIPXktoPsgX-12" value="user_name" style="ellipse;whiteSpace=wrap;html=1;rounded=0;" parent="1" vertex="1">
          <mxGeometry x="740" y="80" width="90" height="30" as="geometry" />
        </mxCell>
        <mxCell id="7XeO29AsoPIPXktoPsgX-13" value="user_mobile" style="ellipse;whiteSpace=wrap;html=1;rounded=0;" parent="1" vertex="1">
          <mxGeometry x="740" y="145" width="90" height="30" as="geometry" />
        </mxCell>
        <mxCell id="7XeO29AsoPIPXktoPsgX-14" value="user_address" style="ellipse;whiteSpace=wrap;html=1;rounded=0;" parent="1" vertex="1">
          <mxGeometry x="710" y="210" width="90" height="30" as="geometry" />
        </mxCell>
        <mxCell id="7XeO29AsoPIPXktoPsgX-15" value="" style="endArrow=classic;html=1;rounded=0;entryX=0.102;entryY=0.633;entryDx=0;entryDy=0;entryPerimeter=0;" parent="1" source="7XeO29AsoPIPXktoPsgX-5" target="7XeO29AsoPIPXktoPsgX-13" edge="1">
          <mxGeometry width="50" height="50" relative="1" as="geometry">
            <mxPoint x="590" y="280" as="sourcePoint" />
            <mxPoint x="640" y="230" as="targetPoint" />
            <Array as="points" />
          </mxGeometry>
        </mxCell>
        <mxCell id="7XeO29AsoPIPXktoPsgX-16" value="" style="endArrow=classic;html=1;rounded=0;exitX=1.013;exitY=0.367;exitDx=0;exitDy=0;exitPerimeter=0;entryX=0;entryY=0.5;entryDx=0;entryDy=0;" parent="1" source="7XeO29AsoPIPXktoPsgX-5" target="7XeO29AsoPIPXktoPsgX-12" edge="1">
          <mxGeometry width="50" height="50" relative="1" as="geometry">
            <mxPoint x="680" y="150" as="sourcePoint" />
            <mxPoint x="730" y="100" as="targetPoint" />
          </mxGeometry>
        </mxCell>
        <mxCell id="7XeO29AsoPIPXktoPsgX-17" value="" style="endArrow=classic;html=1;rounded=0;" parent="1" source="7XeO29AsoPIPXktoPsgX-5" target="7XeO29AsoPIPXktoPsgX-14" edge="1">
          <mxGeometry width="50" height="50" relative="1" as="geometry">
            <mxPoint x="610" y="280" as="sourcePoint" />
            <mxPoint x="660" y="230" as="targetPoint" />
          </mxGeometry>
        </mxCell>
        <mxCell id="7XeO29AsoPIPXktoPsgX-19" value="LOGIN" style="whiteSpace=wrap;html=1;rounded=0;" parent="1" vertex="1">
          <mxGeometry x="80" y="130" width="120" height="60" as="geometry" />
        </mxCell>
        <mxCell id="7XeO29AsoPIPXktoPsgX-21" value="login_username" style="ellipse;whiteSpace=wrap;html=1;rounded=0;" parent="1" vertex="1">
          <mxGeometry x="80" y="20" width="90" height="30" as="geometry" />
        </mxCell>
        <mxCell id="7XeO29AsoPIPXktoPsgX-22" value="login_id" style="ellipse;whiteSpace=wrap;html=1;rounded=0;" parent="1" vertex="1">
          <mxGeometry x="200" y="60" width="90" height="30" as="geometry" />
        </mxCell>
        <mxCell id="7XeO29AsoPIPXktoPsgX-23" value="user_password" style="ellipse;whiteSpace=wrap;html=1;rounded=0;" parent="1" vertex="1">
          <mxGeometry x="-30" y="50" width="90" height="30" as="geometry" />
        </mxCell>
        <mxCell id="2c_35KQz-vzl0vyJU7Tn-4" value="" style="edgeStyle=orthogonalEdgeStyle;rounded=0;orthogonalLoop=1;jettySize=auto;html=1;" edge="1" parent="1" source="2c_35KQz-vzl0vyJU7Tn-1" target="2c_35KQz-vzl0vyJU7Tn-3">
          <mxGeometry relative="1" as="geometry" />
        </mxCell>
        <mxCell id="2c_35KQz-vzl0vyJU7Tn-15" value="" style="edgeStyle=orthogonalEdgeStyle;rounded=0;orthogonalLoop=1;jettySize=auto;html=1;" edge="1" parent="1" source="2c_35KQz-vzl0vyJU7Tn-1" target="2c_35KQz-vzl0vyJU7Tn-14">
          <mxGeometry relative="1" as="geometry" />
        </mxCell>
        <mxCell id="2c_35KQz-vzl0vyJU7Tn-1" value="manage" style="rhombus;whiteSpace=wrap;html=1;rounded=0;" vertex="1" parent="1">
          <mxGeometry x="300" y="440" width="80" height="80" as="geometry" />
        </mxCell>
        <mxCell id="2c_35KQz-vzl0vyJU7Tn-3" value="product" style="whiteSpace=wrap;html=1;rounded=0;" vertex="1" parent="1">
          <mxGeometry x="530" y="380" width="120" height="60" as="geometry" />
        </mxCell>
        <mxCell id="2c_35KQz-vzl0vyJU7Tn-5" value="prodict_name" style="ellipse;whiteSpace=wrap;html=1;rounded=0;" vertex="1" parent="1">
          <mxGeometry x="730" y="395" width="90" height="30" as="geometry" />
        </mxCell>
        <mxCell id="2c_35KQz-vzl0vyJU7Tn-6" value="product_id" style="ellipse;whiteSpace=wrap;html=1;rounded=0;" vertex="1" parent="1">
          <mxGeometry x="690" y="320" width="90" height="30" as="geometry" />
        </mxCell>
        <mxCell id="2c_35KQz-vzl0vyJU7Tn-7" value="product_desc" style="ellipse;whiteSpace=wrap;html=1;rounded=0;" vertex="1" parent="1">
          <mxGeometry x="720" y="470" width="90" height="30" as="geometry" />
        </mxCell>
        <mxCell id="2c_35KQz-vzl0vyJU7Tn-8" value="product_type" style="ellipse;whiteSpace=wrap;html=1;rounded=0;" vertex="1" parent="1">
          <mxGeometry x="660" y="530" width="90" height="30" as="geometry" />
        </mxCell>
        <mxCell id="2c_35KQz-vzl0vyJU7Tn-10" value="" style="endArrow=classic;html=1;rounded=0;" edge="1" parent="1">
          <mxGeometry width="50" height="50" relative="1" as="geometry">
            <mxPoint x="650" y="390" as="sourcePoint" />
            <mxPoint x="700" y="340" as="targetPoint" />
          </mxGeometry>
        </mxCell>
        <mxCell id="2c_35KQz-vzl0vyJU7Tn-11" value="" style="endArrow=classic;html=1;rounded=0;entryX=0;entryY=0.5;entryDx=0;entryDy=0;exitX=1;exitY=0.5;exitDx=0;exitDy=0;" edge="1" parent="1" source="2c_35KQz-vzl0vyJU7Tn-3" target="2c_35KQz-vzl0vyJU7Tn-5">
          <mxGeometry width="50" height="50" relative="1" as="geometry">
            <mxPoint x="670" y="470" as="sourcePoint" />
            <mxPoint x="720" y="420" as="targetPoint" />
          </mxGeometry>
        </mxCell>
        <mxCell id="2c_35KQz-vzl0vyJU7Tn-12" value="" style="endArrow=classic;html=1;rounded=0;entryX=0.222;entryY=0.133;entryDx=0;entryDy=0;entryPerimeter=0;exitX=0.84;exitY=0.933;exitDx=0;exitDy=0;exitPerimeter=0;" edge="1" parent="1" source="2c_35KQz-vzl0vyJU7Tn-3" target="2c_35KQz-vzl0vyJU7Tn-7">
          <mxGeometry width="50" height="50" relative="1" as="geometry">
            <mxPoint x="640" y="500" as="sourcePoint" />
            <mxPoint x="690" y="450" as="targetPoint" />
          </mxGeometry>
        </mxCell>
        <mxCell id="2c_35KQz-vzl0vyJU7Tn-13" value="" style="endArrow=classic;html=1;rounded=0;entryX=0.5;entryY=0;entryDx=0;entryDy=0;" edge="1" parent="1" source="2c_35KQz-vzl0vyJU7Tn-3" target="2c_35KQz-vzl0vyJU7Tn-8">
          <mxGeometry width="50" height="50" relative="1" as="geometry">
            <mxPoint x="540" y="500" as="sourcePoint" />
            <mxPoint x="590" y="450" as="targetPoint" />
          </mxGeometry>
        </mxCell>
        <mxCell id="2c_35KQz-vzl0vyJU7Tn-14" value="order" style="whiteSpace=wrap;html=1;rounded=0;" vertex="1" parent="1">
          <mxGeometry x="90" y="395" width="120" height="60" as="geometry" />
        </mxCell>
        <mxCell id="2c_35KQz-vzl0vyJU7Tn-16" value="user_id" style="ellipse;whiteSpace=wrap;html=1;rounded=0;" vertex="1" parent="1">
          <mxGeometry x="-40" y="350" width="90" height="30" as="geometry" />
        </mxCell>
        <mxCell id="2c_35KQz-vzl0vyJU7Tn-17" value="user_id" style="ellipse;whiteSpace=wrap;html=1;rounded=0;" vertex="1" parent="1">
          <mxGeometry x="-60" y="410" width="90" height="30" as="geometry" />
        </mxCell>
        <mxCell id="2c_35KQz-vzl0vyJU7Tn-18" value="user_id" style="ellipse;whiteSpace=wrap;html=1;rounded=0;" vertex="1" parent="1">
          <mxGeometry x="-40" y="455" width="90" height="30" as="geometry" />
        </mxCell>
        <mxCell id="2c_35KQz-vzl0vyJU7Tn-19" value="user_id" style="ellipse;whiteSpace=wrap;html=1;rounded=0;" vertex="1" parent="1">
          <mxGeometry x="15" y="500" width="90" height="30" as="geometry" />
        </mxCell>
        <mxCell id="2c_35KQz-vzl0vyJU7Tn-20" value="" style="endArrow=classic;html=1;rounded=0;entryX=0.62;entryY=1.013;entryDx=0;entryDy=0;entryPerimeter=0;exitX=0.417;exitY=0.083;exitDx=0;exitDy=0;exitPerimeter=0;" edge="1" parent="1" source="2c_35KQz-vzl0vyJU7Tn-14" target="2c_35KQz-vzl0vyJU7Tn-16">
          <mxGeometry width="50" height="50" relative="1" as="geometry">
            <mxPoint x="120" y="390" as="sourcePoint" />
            <mxPoint x="170" y="340" as="targetPoint" />
          </mxGeometry>
        </mxCell>
        <mxCell id="2c_35KQz-vzl0vyJU7Tn-21" value="" style="endArrow=classic;html=1;rounded=0;exitX=0;exitY=0.5;exitDx=0;exitDy=0;" edge="1" parent="1" source="2c_35KQz-vzl0vyJU7Tn-14" target="2c_35KQz-vzl0vyJU7Tn-17">
          <mxGeometry width="50" height="50" relative="1" as="geometry">
            <mxPoint x="-10" y="430" as="sourcePoint" />
            <mxPoint x="40" y="380" as="targetPoint" />
          </mxGeometry>
        </mxCell>
        <mxCell id="2c_35KQz-vzl0vyJU7Tn-22" value="" style="endArrow=classic;html=1;rounded=0;entryX=0.662;entryY=0.147;entryDx=0;entryDy=0;entryPerimeter=0;" edge="1" parent="1" source="2c_35KQz-vzl0vyJU7Tn-14" target="2c_35KQz-vzl0vyJU7Tn-19">
          <mxGeometry width="50" height="50" relative="1" as="geometry">
            <mxPoint x="80" y="530" as="sourcePoint" />
            <mxPoint x="130" y="480" as="targetPoint" />
          </mxGeometry>
        </mxCell>
        <mxCell id="2c_35KQz-vzl0vyJU7Tn-23" value="" style="endArrow=classic;html=1;rounded=0;" edge="1" parent="1" source="2c_35KQz-vzl0vyJU7Tn-14" target="2c_35KQz-vzl0vyJU7Tn-18">
          <mxGeometry width="50" height="50" relative="1" as="geometry">
            <mxPoint x="50" y="530" as="sourcePoint" />
            <mxPoint x="100" y="480" as="targetPoint" />
          </mxGeometry>
        </mxCell>
        <mxCell id="2c_35KQz-vzl0vyJU7Tn-24" value="" style="endArrow=classic;html=1;rounded=0;entryX=0.293;entryY=0.84;entryDx=0;entryDy=0;entryPerimeter=0;exitX=0.633;exitY=0.04;exitDx=0;exitDy=0;exitPerimeter=0;" edge="1" parent="1" source="7XeO29AsoPIPXktoPsgX-19" target="7XeO29AsoPIPXktoPsgX-22">
          <mxGeometry width="50" height="50" relative="1" as="geometry">
            <mxPoint x="350" y="10" as="sourcePoint" />
            <mxPoint x="400" y="-40" as="targetPoint" />
          </mxGeometry>
        </mxCell>
        <mxCell id="2c_35KQz-vzl0vyJU7Tn-25" value="" style="endArrow=classic;html=1;rounded=0;exitX=0.56;exitY=0.093;exitDx=0;exitDy=0;exitPerimeter=0;" edge="1" parent="1" source="7XeO29AsoPIPXktoPsgX-19" target="7XeO29AsoPIPXktoPsgX-21">
          <mxGeometry width="50" height="50" relative="1" as="geometry">
            <mxPoint x="340" y="-20" as="sourcePoint" />
            <mxPoint x="390" y="-70" as="targetPoint" />
          </mxGeometry>
        </mxCell>
        <mxCell id="2c_35KQz-vzl0vyJU7Tn-26" value="" style="endArrow=classic;html=1;rounded=0;entryX=0.5;entryY=1;entryDx=0;entryDy=0;" edge="1" parent="1" source="7XeO29AsoPIPXktoPsgX-19" target="7XeO29AsoPIPXktoPsgX-23">
          <mxGeometry width="50" height="50" relative="1" as="geometry">
            <mxPoint x="280" y="-10" as="sourcePoint" />
            <mxPoint x="330" y="-60" as="targetPoint" />
          </mxGeometry>
        </mxCell>
      </root>
    </mxGraphModel>
  </diagram>
</mxfile>
